<?xml version="1.0" encoding="UTF-8"?>
<svg version="1.1" xmlns="http://www.w3.org/2000/svg" width="500" height="500">
<path d="M0 0 C2.80264702 1.18913123 4.57612584 2.99757389 6.734375 5.12792969 C7.54519531 5.9078125 8.35601562 6.68769531 9.19140625 7.49121094 C10.921875 9.81542969 10.921875 9.81542969 10.77235413 11.69708252 C9.66902253 14.44522681 8.14853159 15.94865068 6.04467773 18.03320312 C4.81351479 19.26402618 4.81351479 19.26402618 3.55747986 20.51971436 C2.66581619 21.39589417 1.77415253 22.27207397 0.85546875 23.17480469 C-0.05315414 24.07918274 -0.96177704 24.98356079 -1.89793396 25.91534424 C-4.30966264 28.31563722 -6.73026502 30.70678338 -9.15283203 33.09613037 C-11.62489332 35.5374633 -14.08844805 37.98734708 -16.55273438 40.43652344 C-21.38624395 45.23789143 -26.22918273 50.02964918 -31.078125 54.81542969 C-28.58215763 57.98706322 -26.1678046 60.77704705 -23.078125 63.37792969 C-17.22148164 68.40415346 -17.22148164 68.40415346 -15.078125 70.81542969 C-15.078125 71.47542969 -15.078125 72.13542969 -15.078125 72.81542969 C-14.418125 72.81542969 -13.758125 72.81542969 -13.078125 72.81542969 C-11.71635578 74.45894426 -10.38850434 76.13065625 -9.078125 77.81542969 C-7.43509547 79.50540292 -5.76341188 81.16759363 -4.078125 82.81542969 C-3.34722656 83.55664062 -2.61632812 84.29785156 -1.86328125 85.06152344 C-1.06792969 85.8671875 -0.27257812 86.67285156 0.546875 87.50292969 C1.30226562 88.26992188 2.05765625 89.03691406 2.8359375 89.82714844 C4.95722859 91.96362738 4.95722859 91.96362738 7.921875 93.81542969 C7.921875 94.47542969 7.921875 95.13542969 7.921875 95.81542969 C8.581875 95.81542969 9.241875 95.81542969 9.921875 95.81542969 C10.76171875 97.45605469 10.76171875 97.45605469 10.921875 99.81542969 C9.16351092 101.94569819 7.49762706 103.71041389 5.484375 105.56542969 C4.95521484 106.07203125 4.42605469 106.57863281 3.88085938 107.10058594 C2.57210399 108.35038838 1.24835541 109.58445587 -0.078125 110.81542969 C-4.04870518 108.67692058 -6.64482501 106.31680637 -9.59765625 102.92480469 C-18.22939645 93.23422673 -27.57158489 84.21648805 -36.765625 75.06542969 C-38.64281204 73.19326837 -40.51976705 71.32087436 -42.39648438 69.44824219 C-46.95435999 64.90128564 -51.51509012 60.35720841 -56.078125 55.81542969 C-54.98307884 52.5302912 -54.30046871 51.93282483 -51.70703125 49.81152344 C-46.70683395 45.56687189 -42.0839114 40.97201693 -37.4597168 36.32739258 C-36.01787279 34.88018584 -34.57075384 33.43840943 -33.12304688 31.99707031 C-28.50379637 27.38108468 -24.01898611 22.7034196 -19.76538086 17.74731445 C-16.60204225 14.12533523 -13.25520814 10.68701596 -9.890625 7.25292969 C-9.19259766 6.51751953 -8.49457031 5.78210938 -7.77539062 5.02441406 C-7.09798828 4.33541016 -6.42058594 3.64640625 -5.72265625 2.93652344 C-5.11784424 2.31189209 -4.51303223 1.68726074 -3.88989258 1.04370117 C-2.078125 -0.18457031 -2.078125 -0.18457031 0 0 Z " fill="#0347A7" transform="translate(100.078125,188.1845703125)"/>
<path d="M0 0 C3.42544795 1.66082325 5.65008732 3.61832211 8.05078125 6.49707031 C12.46856771 11.63056012 17.28345622 16.31653845 22.125 21.046875 C23.57230008 22.47209733 25.01778856 23.89914218 26.46330261 25.32617569 C29.99698401 28.81438019 33.53479742 32.29817379 37.08837891 35.76611328 C39.57755617 38.19604767 42.05447115 40.63789692 44.52362061 43.08817291 C45.9192635 44.4663665 47.32797561 45.83128456 48.73681641 47.19598389 C49.57519043 48.03075256 50.41356445 48.86552124 51.27734375 49.72558594 C52.02234131 50.45646423 52.76733887 51.18734253 53.53491211 51.94036865 C55 54 55 54 55.0438385 55.93469238 C53.54653979 58.89720281 51.36724027 61.02476653 49.02124023 63.31933594 C48.50415497 63.83685928 47.9870697 64.35438263 47.45431519 64.8875885 C45.74609034 66.59372597 44.02749105 68.28899592 42.30859375 69.984375 C41.12109704 71.16627559 39.93426165 72.34884096 38.74806213 73.53204346 C35.6261371 76.64252102 32.49530756 79.74388392 29.36254883 82.84344482 C26.16661903 86.00867181 22.9791781 89.18242168 19.79101562 92.35546875 C13.53563046 98.57869148 7.27080675 104.79231978 1 111 C-2.28615979 109.43202618 -4.66880952 107.71519675 -7.3125 105.1875 C-8.38951172 104.18783203 -8.38951172 104.18783203 -9.48828125 103.16796875 C-11 101 -11 101 -10.73046875 98.23828125 C-10.48941406 97.49964844 -10.24835938 96.76101563 -10 96 C-9.34 96 -8.68 96 -8 96 C-8 95.34 -8 94.68 -8 94 C-7.34 94 -6.68 94 -6 94 C-6 93.34 -6 92.68 -6 92 C-4.125 89.875 -4.125 89.875 -2 88 C-1.34 88 -0.68 88 0 88 C0 87.34 0 86.68 0 86 C0.66 86 1.32 86 2 86 C2 85.34 2 84.68 2 84 C2.66 84 3.32 84 4 84 C4 83.34 4 82.68 4 82 C4.66 82 5.32 82 6 82 C6 81.34 6 80.68 6 80 C6.66 80 7.32 80 8 80 C8 79.34 8 78.68 8 78 C8.66 78 9.32 78 10 78 C10.66 76.68 11.32 75.36 12 74 C12.66 74 13.32 74 14 74 C14.2475 73.4225 14.495 72.845 14.75 72.25 C16.18299988 69.67060021 17.78424676 67.93878408 20 66 C20.66 66 21.32 66 22 66 C22 65.34 22 64.68 22 64 C22.66 64 23.32 64 24 64 C24 63.34 24 62.68 24 62 C25.2065625 61.071875 25.2065625 61.071875 26.4375 60.125 C29.00242116 58.27207558 29.00242116 58.27207558 29.9609375 56.19140625 C30.23682268 53.7449213 30.23682268 53.7449213 27.98046875 51.45703125 C27.05878906 50.58433594 26.13710938 49.71164063 25.1875 48.8125 C24.27355469 47.93207031 23.35960937 47.05164063 22.41796875 46.14453125 C20.20297645 43.99361023 20.20297645 43.99361023 18 43 C18 42.34 18 41.68 18 41 C17.34 41 16.68 41 16 41 C16 40.34 16 39.68 16 39 C15.34 39 14.68 39 14 39 C12.37890625 37.3203125 12.37890625 37.3203125 10.5625 35.125 C8.41599116 32.53806278 6.83223438 30.88815626 4 29 C4 28.34 4 27.68 4 27 C3.34 27 2.68 27 2 27 C0.484375 25.4609375 0.484375 25.4609375 -1.25 23.375 C-3.54500225 20.64606875 -5.86561709 18.1504891 -8.5 15.75 C-9.325 14.8425 -10.15 13.935 -11 13 C-10.82585682 10.40321782 -10.27393773 9.28728342 -8.4765625 7.40234375 C-7.56003906 6.67724609 -7.56003906 6.67724609 -6.625 5.9375 C-4.28125058 4.05751376 -2.09045486 2.16099168 0 0 Z " fill="#0347A6" transform="translate(397,187)"/>
<path d="M0 0 C4.62 0 9.24 0 14 0 C15.98 4.29 17.96 8.58 20 13 C20.33 9.04 20.66 5.08 21 1 C25.62 0.67 30.24 0.34 35 0 C34.88083752 4.96229345 34.75653889 9.92442332 34.62768555 14.88647461 C34.58464114 16.57101028 34.54294777 18.25558108 34.50268555 19.94018555 C34.44423571 22.37559554 34.38076577 24.81083358 34.31640625 27.24609375 C34.29133751 28.35760048 34.29133751 28.35760048 34.26576233 29.49156189 C34.12128378 34.70756197 33.62934763 39.81964033 33 45 C29.37 45 25.74 45 22 45 C18.04 36.585 18.04 36.585 14 28 C13.42173822 33.21949246 13.42173822 33.21949246 12.86376953 38.44116211 C12.64445568 40.30347517 12.32484959 42.15316995 12 44 C10 45 10 45 0 45 C0 30.15 0 15.3 0 0 Z " fill="#FEFEFE" transform="translate(128,222)"/>
<path d="M0 0 C4.09333905 -0.07408587 8.18641933 -0.1285704 12.28027344 -0.16479492 C13.67324622 -0.17989358 15.06617138 -0.20037444 16.45898438 -0.22631836 C18.45942885 -0.26265122 20.46021827 -0.27811192 22.4609375 -0.29296875 C24.26763916 -0.31653442 24.26763916 -0.31653442 26.11083984 -0.34057617 C27.0642627 -0.22818604 28.01768555 -0.1157959 29 0 C31.56297058 3.84445587 31.28808534 7.00895287 31.265625 11.46484375 C31.26849518 12.70942101 31.26849518 12.70942101 31.27142334 13.97914124 C31.27278389 15.7334117 31.26909653 17.48769226 31.26074219 19.24194336 C31.25005421 21.92389634 31.26063474 24.60517743 31.2734375 27.28710938 C31.27211562 28.99218898 31.26955263 30.69726816 31.265625 32.40234375 C31.26967346 33.20349106 31.27372192 34.00463837 31.27789307 34.83006287 C31.24552452 38.68494421 31.19425413 41.73640107 29 45 C24.75074388 45.22594826 20.50067556 45.42771126 16.25 45.625 C15.0434375 45.68945312 13.836875 45.75390625 12.59375 45.8203125 C11.43359375 45.871875 10.2734375 45.9234375 9.078125 45.9765625 C8.00981445 46.02893066 6.94150391 46.08129883 5.84082031 46.13525391 C2.91861298 45.99612509 1.51903665 45.37054188 -1 44 C-1.02467203 38.05517888 -1.04284663 32.1103874 -1.05493164 26.16552734 C-1.05996831 24.14208457 -1.06679789 22.11864544 -1.07543945 20.09521484 C-1.08753412 17.19107157 -1.09323488 14.28697631 -1.09765625 11.3828125 C-1.10281754 10.47443634 -1.10797882 9.56606018 -1.11329651 8.63015747 C-1.11337204 7.78943695 -1.11344757 6.94871643 -1.11352539 6.08251953 C-1.115746 5.34083527 -1.11796661 4.599151 -1.12025452 3.83499146 C-1 2 -1 2 0 0 Z M11 10 C10.97272655 12.66673742 10.95303052 15.33318869 10.9375 18 C10.92912109 18.74378906 10.92074219 19.48757812 10.91210938 20.25390625 C10.89033728 25.26148844 11.28458451 30.04279032 12 35 C13.98 35.33 15.96 35.66 18 36 C18 27.75 18 19.5 18 11 C15.69 10.67 13.38 10.34 11 10 Z " fill="#FEFEFE" transform="translate(259,222)"/>
<path d="M0 0 C0.96292969 -0.03867188 1.92585938 -0.07734375 2.91796875 -0.1171875 C3.76875 -0.15457031 4.61953125 -0.19195312 5.49609375 -0.23046875 C7.66796875 0.1953125 7.66796875 0.1953125 9.421875 1.7265625 C11.12685172 5.10444742 11.24194631 8.29778513 11.35546875 12.0078125 C11.38890381 12.77593262 11.42233887 13.54405273 11.45678711 14.33544922 C11.84870774 24.61496745 11.75736432 34.91069642 11.66796875 45.1953125 C9.68942617 45.38928726 7.71010395 45.57532571 5.73046875 45.7578125 C4.07724609 45.91443359 4.07724609 45.91443359 2.390625 46.07421875 C1.04291016 46.13416016 1.04291016 46.13416016 -0.33203125 46.1953125 C-1.33203125 45.1953125 -1.33203125 45.1953125 -1.4296875 42.25390625 C-1.41808594 41.05894531 -1.40648438 39.86398437 -1.39453125 38.6328125 C-1.38550781 37.43527344 -1.37648438 36.23773438 -1.3671875 35.00390625 C-1.35558594 34.07707031 -1.34398438 33.15023437 -1.33203125 32.1953125 C-3.97203125 32.1953125 -6.61203125 32.1953125 -9.33203125 32.1953125 C-9.32042969 32.88238281 -9.30882813 33.56945312 -9.296875 34.27734375 C-9.28333984 35.62892578 -9.28333984 35.62892578 -9.26953125 37.0078125 C-9.25792969 37.90113281 -9.24632813 38.79445313 -9.234375 39.71484375 C-9.33203125 42.1953125 -9.33203125 42.1953125 -10.33203125 45.1953125 C-15.77703125 45.6903125 -15.77703125 45.6903125 -21.33203125 46.1953125 C-21.43126623 35.31254275 -21.40624493 24.44586151 -20.95703125 13.5703125 C-20.92617432 12.67675049 -20.89531738 11.78318848 -20.86352539 10.86254883 C-20.82477295 10.03134521 -20.78602051 9.2001416 -20.74609375 8.34375 C-20.71467285 7.61333496 -20.68325195 6.88291992 -20.65087891 6.13037109 C-20.33203125 4.1953125 -20.33203125 4.1953125 -18.33203125 1.1953125 C-12.29797967 0.19599422 -6.09974916 0.35754684 0 0 Z M-8.33203125 13.1953125 C-8.33203125 16.1653125 -8.33203125 19.1353125 -8.33203125 22.1953125 C-6.02203125 22.1953125 -3.71203125 22.1953125 -1.33203125 22.1953125 C-1.33203125 18.8953125 -1.33203125 15.5953125 -1.33203125 12.1953125 C-5.22662199 11.98449399 -5.22662199 11.98449399 -8.33203125 13.1953125 Z " fill="#FDFDFD" transform="translate(115.33203125,221.8046875)"/>
<path d="M0 0 C2.765625 -0.37231445 2.765625 -0.37231445 6.25 -0.36328125 C7.4978125 -0.36263672 8.745625 -0.36199219 10.03125 -0.36132812 C11.99578125 -0.3371582 11.99578125 -0.3371582 14 -0.3125 C15.3096875 -0.31572266 16.619375 -0.31894531 17.96875 -0.32226562 C27.73321429 -0.26678571 27.73321429 -0.26678571 30 2 C30.1953125 5.2578125 30.1953125 5.2578125 30.125 9.125 C30.10695312 10.40632812 30.08890625 11.68765625 30.0703125 13.0078125 C30.04710937 13.99523437 30.02390625 14.98265625 30 16 C26.04 16 22.08 16 18 16 C18 14.02 18 12.04 18 10 C15.69 10.33 13.38 10.66 11 11 C11 18.92 11 26.84 11 35 C13.31 35 15.62 35 18 35 C18 33.68 18 32.36 18 31 C16.68 31 15.36 31 14 31 C14 27.7 14 24.4 14 21 C19.28 21 24.56 21 30 21 C30.05385444 24.43770829 30.09360344 27.87457642 30.125 31.3125 C30.14175781 32.28896484 30.15851563 33.26542969 30.17578125 34.27148438 C30.18544922 35.67817383 30.18544922 35.67817383 30.1953125 37.11328125 C30.21102295 38.40939331 30.21102295 38.40939331 30.22705078 39.73168945 C30 42 30 42 28 45 C25.34204102 45.37231445 25.34204102 45.37231445 22.00390625 45.36328125 C20.80572266 45.36263672 19.60753906 45.36199219 18.37304688 45.36132812 C17.11556641 45.34521484 15.85808594 45.32910156 14.5625 45.3125 C13.30888672 45.31572266 12.05527344 45.31894531 10.76367188 45.32226562 C1.40038162 45.26692108 1.40038162 45.26692108 -2 43 C-2.29155391 39.98408991 -2.39576778 37.1768564 -2.36328125 34.16015625 C-2.36377975 33.28225937 -2.36427826 32.40436249 -2.36479187 31.49986267 C-2.36244908 29.64124288 -2.35270848 27.78262005 -2.33618164 25.92407227 C-2.31262288 23.07734813 -2.31561481 20.23156222 -2.32226562 17.38476562 C-2.31668786 15.58072358 -2.30957736 13.77668548 -2.30078125 11.97265625 C-2.30169266 11.11946304 -2.30260406 10.26626984 -2.30354309 9.38722229 C-2.2310381 3.34655715 -2.2310381 3.34655715 0 0 Z " fill="#FEFEFE" transform="translate(166,222)"/>
<path d="M0 0 C27.21004732 1.43210775 27.21004732 1.43210775 30.54296875 3.828125 C32.79960557 8.74069631 32.45815976 13.41561598 32.3125 18.75 C32.29799805 20.32007813 32.29799805 20.32007813 32.28320312 21.921875 C32.23964163 24.95223989 32.13747229 27.9725434 32 31 C31.94851807 32.28487305 31.94851807 32.28487305 31.89599609 33.59570312 C31.84137207 34.37365234 31.78674805 35.15160156 31.73046875 35.953125 C31.66508911 36.95327637 31.66508911 36.95327637 31.59838867 37.97363281 C30.68808336 41.05626605 29.29229919 42.76300011 27 45 C24.06738281 45.65942383 24.06738281 45.65942383 20.703125 45.70703125 C19.61676758 45.73514893 18.53041016 45.7632666 17.41113281 45.79223633 C15.35137207 45.80226685 15.35137207 45.80226685 13.25 45.8125 C6.69125 45.9053125 6.69125 45.9053125 0 46 C0 30.82 0 15.64 0 0 Z M12 12 C12.33 19.59 12.66 27.18 13 35 C16.465 34.505 16.465 34.505 20 34 C20 27.4 20 20.8 20 14 C17.36 13.34 14.72 12.68 12 12 Z " fill="#FEFEFE" transform="translate(306,222)"/>
<path d="M0 0 C0.67590188 3.37321776 1.33905518 6.74882242 2 10.125 C2.19078125 11.07632813 2.3815625 12.02765625 2.578125 13.0078125 C3.49756891 17.73638116 4.2609763 22.15562735 4 27 C4.66 27 5.32 27 6 27 C6.03738281 26.3915625 6.07476562 25.783125 6.11328125 25.15625 C6.7525246 16.63300529 8.33055563 8.36822115 10 0 C14.29 0.66 18.58 1.32 23 2 C22.41924475 10.14648467 20.86048241 17.94805301 19.04370117 25.88916016 C18.55756451 28.02165006 18.08595991 30.1570303 17.61523438 32.29296875 C17.30815262 33.6538404 17.00024077 35.01452506 16.69140625 36.375 C16.41498291 37.59960938 16.13855957 38.82421875 15.85375977 40.0859375 C15 43 15 43 13 45 C10.48494374 45.38760427 8.09193077 45.64831305 5.5625 45.8125 C4.88123047 45.87630859 4.19996094 45.94011719 3.49804688 46.00585938 C-1.5393567 46.35615874 -1.5393567 46.35615874 -3.64607239 44.72729492 C-5.96607231 41.76751772 -6.4515316 38.10161149 -7.26171875 34.5 C-7.45723831 33.66791016 -7.65275787 32.83582031 -7.85420227 31.97851562 C-8.26504668 30.22122912 -8.67070375 28.46272289 -9.0715332 26.703125 C-9.68573865 24.00772957 -10.31503581 21.31621864 -10.94726562 18.625 C-11.34463478 16.91687226 -11.74114827 15.20854518 -12.13671875 13.5 C-12.3241716 12.69369141 -12.51162445 11.88738281 -12.70475769 11.05664062 C-13.40408005 7.97690435 -14 5.16905065 -14 2 C-12.60582227 1.65980848 -11.20955342 1.32818221 -9.8125 1 C-8.64654297 0.7215625 -8.64654297 0.7215625 -7.45703125 0.4375 C-4.91780654 -0.0146354 -2.57333152 -0.02998784 0 0 Z " fill="#FDFDFD" transform="translate(383,222)"/>
<path d="M0 0 C19 0 19 0 27 1 C27 4.63 27 8.26 27 12 C22.05 12 17.1 12 12 12 C12 13.32 12 14.64 12 16 C14.97 16.33 17.94 16.66 21 17 C21 20.3 21 23.6 21 27 C18.03 27 15.06 27 12 27 C12 29.31 12 31.62 12 34 C16.95 34 21.9 34 27 34 C27.33 37.63 27.66 41.26 28 45 C18.76 45 9.52 45 0 45 C0 30.15 0 15.3 0 0 Z " fill="#FEFEFE" transform="translate(198,222)"/>
<path d="M0 0 C19 0 19 0 27 1 C26.67 4.63 26.34 8.26 26 12 C21.38 12 16.76 12 12 12 C12 13.32 12 14.64 12 16 C14.97 16.33 17.94 16.66 21 17 C21 20.3 21 23.6 21 27 C18.03 27 15.06 27 12 27 C12 29.31 12 31.62 12 34 C16.95 34 21.9 34 27 34 C27 37.63 27 41.26 27 45 C18.09 45 9.18 45 0 45 C0 30.15 0 15.3 0 0 Z " fill="#FEFEFE" transform="translate(340,222)"/>
<path d="M0 0 C1.62490954 -0.02698189 3.24994633 -0.04638757 4.875 -0.0625 C5.77992188 -0.07410156 6.68484375 -0.08570313 7.6171875 -0.09765625 C10 0 10 0 12 1 C12 11.89 12 22.78 12 34 C16.95 34 21.9 34 27 34 C28 38 28 38 28 46 C18.43 46 8.86 46 -1 46 C-1.02295953 40.09174826 -1.042872 34.18365143 -1.05493164 28.27539062 C-1.05995931 26.26561966 -1.06678233 24.25585236 -1.07543945 22.24609375 C-1.08757351 19.35676165 -1.09324399 16.46747793 -1.09765625 13.578125 C-1.10281754 12.68007141 -1.10797882 11.78201782 -1.11329651 10.85675049 C-1.11337204 10.01618103 -1.11344757 9.17561157 -1.11352539 8.30957031 C-1.115746 7.57232727 -1.11796661 6.83508423 -1.12025452 6.07550049 C-0.99643498 3.93847043 -0.58521369 2.05476076 0 0 Z " fill="#FEFEFE" transform="translate(228,222)"/>
<path d="M0 0 C0.80308594 -0.02578125 1.60617187 -0.0515625 2.43359375 -0.078125 C3.48740234 0.08429688 3.48740234 0.08429688 4.5625 0.25 C7.34887633 4.4295645 6.35812512 6.39668677 5.5625 11.25 C1.6025 11.25 -2.3575 11.25 -6.4375 11.25 C-7.69940138 8.72619724 -7.27237878 7.86656307 -6.5625 5.1875 C-6.37945312 4.47464844 -6.19640625 3.76179688 -6.0078125 3.02734375 C-4.92115368 -0.35916147 -3.31278511 0.06360547 0 0 Z " fill="#FDFDFD" transform="translate(298.4375,255.75)"/>
<path d="M0 0 C0.66 0.33 1.32 0.66 2 1 C0.7260411 3.03833424 -0.61061923 5.03852126 -2 7 C-2.66 7 -3.32 7 -4 7 C-4.33 7.99 -4.66 8.98 -5 10 C-5.66 10.66 -6.32 11.32 -7 12 C-7.69748583 13.31747324 -8.36959957 14.64914193 -9 16 C-9.33 15.34 -9.66 14.68 -10 14 C-10.66 14 -11.32 14 -12 14 C-12.33 14.99 -12.66 15.98 -13 17 C-13 15.68 -13 14.36 -13 13 C-12.34 13 -11.68 13 -11 13 C-11 12.34 -11 11.68 -11 11 C-10.34 11 -9.68 11 -9 11 C-9 10.34 -9 9.68 -9 9 C-8.34 9 -7.68 9 -7 9 C-7 8.34 -7 7.68 -7 7 C-6.34 7 -5.68 7 -5 7 C-5 6.34 -5 5.68 -5 5 C-4.34 5 -3.68 5 -3 5 C-3 4.34 -3 3.68 -3 3 C-2.34 3 -1.68 3 -1 3 C-0.67 2.01 -0.34 1.02 0 0 Z " fill="#053E93" transform="translate(408,262)"/>
<path d="M0 0 C2.475 0.495 2.475 0.495 5 1 C5 1.99 5 2.98 5 4 C5.99 4 6.98 4 8 4 C10.21538462 9.41538462 10.21538462 9.41538462 9.125 12.375 C8.75375 12.91125 8.3825 13.4475 8 14 C7.01 13.67 6.02 13.34 5 13 C5.66 11.35 6.32 9.7 7 8 C6.4946875 7.50628906 5.989375 7.01257813 5.46875 6.50390625 C4.49421875 5.54291016 4.49421875 5.54291016 3.5 4.5625 C2.8503125 3.92441406 2.200625 3.28632813 1.53125 2.62890625 C0 1 0 1 0 0 Z " fill="#0B4293" transform="translate(420,233)"/>
<path d="M0 0 C1.12894876 0.93274109 2.25300876 1.87140122 3.375 2.8125 C4.00148438 3.33457031 4.62796875 3.85664063 5.2734375 4.39453125 C7 6 7 6 9 9 C8.01 9 7.02 9 6 9 C5.34 8.01 4.68 7.02 4 6 C1.94074861 5.27617533 1.94074861 5.27617533 0 5 C0 3.35 0 1.7 0 0 Z " fill="#0D4091" transform="translate(433,223)"/>
<path d="M0 0 C1.32 0.99 2.64 1.98 4 3 C3.6875 4.875 3.6875 4.875 3 7 C2.01 7.66 1.02 8.32 0 9 C-0.33 7.35 -0.66 5.7 -1 4 C-0.34 4 0.32 4 1 4 C0.67 2.68 0.34 1.36 0 0 Z " fill="#0E4695" transform="translate(107,195)"/>
<path d="M0 0 C2.31 1.98 4.62 3.96 7 6 C6.34 6.66 5.68 7.32 5 8 C2.875 7.625 2.875 7.625 1 7 C1.33 5.68 1.66 4.36 2 3 C1.34 3 0.68 3 0 3 C0 2.01 0 1.02 0 0 Z " fill="#0D4B9E" transform="translate(94,270)"/>
<path d="M0 0 C1.32 0.66 2.64 1.32 4 2 C3.34 2.66 2.68 3.32 2 4 C2.3185177 6.10820797 2.3185177 6.10820797 3 8 C1.68 7.01 0.36 6.02 -1 5 C-0.67 3.35 -0.34 1.7 0 0 Z " fill="#0E4492" transform="translate(387,283)"/>
<path d="M0 0 C0.33 0.66 0.66 1.32 1 2 C-0.98 4.31 -2.96 6.62 -5 9 C-5.33 8.01 -5.66 7.02 -6 6 C-4.02 4.02 -2.04 2.04 0 0 Z " fill="#0B4A9B" transform="translate(59,228)"/>
<path d="M0 0 C0.66 0.33 1.32 0.66 2 1 C0.1875 4 0.1875 4 -2 7 C-2.99 7 -3.98 7 -5 7 C-5 6.34 -5 5.68 -5 5 C-4.34 5 -3.68 5 -3 5 C-3 4.34 -3 3.68 -3 3 C-2.34 3 -1.68 3 -1 3 C-0.67 2.01 -0.34 1.02 0 0 Z " fill="#04387F" transform="translate(408,262)"/>
<path d="M0 0 C1.98 1.65 3.96 3.3 6 5 C5.01 5.66 4.02 6.32 3 7 C3 6.34 3 5.68 3 5 C2.01 5 1.02 5 0 5 C0 3.35 0 1.7 0 0 Z " fill="#0232B6" transform="translate(78,253)"/>
</svg>
